<svg aria-hidden="true" style="position:absolute;width:0;height:0" xmlns="http://www.w3.org/2000/svg" overflow="hidden">
  <defs>
<symbol id="antenna1" width="64" height="64" fill="none" viewbox="0 0 64 64">
 <path d="M61.5463 44.1952L44.6599 27.1851L46.534 17.9541C47.0176 18.1429 47.5318 18.2416 48.0508 18.2453H48.0636C50.4482 18.2735 52.404 16.3633 52.4323 13.9788C52.4606 11.5943 50.5503 9.6384 48.1658 9.61013C45.7812 9.582 43.8254 11.4921 43.7971 13.8767C43.7911 14.3869 43.8755 14.8941 44.0466 15.3749L34.1266 16.5856L17.9452 0.32C17.7467 0.117467 17.4757 0.00226667 17.1921 0C16.9121 0.00146667 16.644 0.112933 16.4455 0.3104L13.4204 3.3184C13.004 3.73493 13.004 4.41013 13.4204 4.82667L15.0481 6.47787C8.74201 18.0737 10.7903 32.4335 20.0871 41.8037C20.1724 41.8853 20.2713 41.9513 20.3793 41.9989C20.3121 42.3599 20.2771 42.7261 20.2748 43.0933V55.4667H7.47481C4.53081 55.4701 2.14495 57.856 2.14148 60.8V62.9333C2.14148 63.5224 2.61908 64 3.20815 64H52.2748C52.8639 64 53.3415 63.5224 53.3415 62.9333V60.8C53.338 57.856 50.9522 55.4701 48.0082 55.4667H35.2082V49.9829C37.2134 50.4035 39.2564 50.6179 41.3052 50.6229C46.2215 50.6176 51.0595 49.392 55.3852 47.056L57.0215 48.7019C57.22 48.9044 57.491 49.0196 57.7746 49.0219C58.0546 49.0204 58.3227 48.9089 58.5212 48.7115L61.5463 45.7035C61.9627 45.2869 61.9627 44.6117 61.5463 44.1952ZM46.5596 12.4661C47.395 11.6352 48.7458 11.6389 49.5766 12.4743C50.4075 13.3096 50.4038 14.6604 49.5684 15.4912C49.1686 15.8889 48.6275 16.1121 48.0635 16.112H48.0571C46.879 16.1059 45.9287 15.1459 45.9348 13.9676C45.9378 13.4036 46.1639 12.8639 46.5638 12.4661H46.5596ZM44.0487 19.4752L42.8519 25.3664L40.5009 23.0016L44.0487 19.4752ZM42.837 17.6715L38.997 21.4891L36.0263 18.5024L42.837 17.6715ZM48.0082 57.6C49.7755 57.6 51.2082 59.0327 51.2082 60.8V61.8667H4.27481V60.8C4.27481 59.0327 5.70748 57.6 7.47481 57.6H48.0082ZM33.0748 53.3333V55.4667H22.4081V53.3333H33.0748ZM22.4081 51.2V43.0933C22.4081 40.5056 24.8007 38.4 27.7415 38.4C30.6823 38.4 33.0748 40.5056 33.0748 43.0933V51.2H22.4081ZM35.2082 47.808V43.0933C35.2082 39.3291 31.8588 36.2667 27.7415 36.2667C25.0793 36.2259 22.59 37.5809 21.1793 39.8389C13.0639 31.2913 11.2364 18.5485 16.6221 8.06467L53.8258 45.4816C48.081 48.404 41.4955 49.2268 35.2082 47.808ZM57.7863 46.4405L56.2834 44.9291L17.1815 5.59147L15.6721 4.07893L17.1815 2.57493L33.0513 18.5344C33.0588 18.5344 33.0631 18.5483 33.0706 18.5536L59.2999 44.9365L57.7863 46.4405Z" fill="#2E2F42"/>
<path d="M27.7511 40.5333H27.7415C25.9742 40.5306 24.5394 41.9612 24.5367 43.7285C24.534 45.4958 25.9646 46.9306 27.7319 46.9333H27.7415C29.5088 46.936 30.9436 45.5054 30.9463 43.7381C30.9489 41.9708 29.5184 40.536 27.7511 40.5333ZM28.4978 44.4896C28.297 44.6893 28.0248 44.801 27.7415 44.8C27.1524 44.7969 26.6774 44.3169 26.6804 43.7278C26.6819 43.4458 26.795 43.176 26.9948 42.977C27.1934 42.7796 27.4615 42.6681 27.7415 42.6666C28.3306 42.6697 28.8056 43.1497 28.8026 43.7388C28.8011 44.0208 28.688 44.2906 28.4882 44.4896H28.4978Z" fill="#4D5AE5"/>
</symbol>

<symbol id="clock" width="64" height="64" fill="none" viewbox="0 0 64 64">    
<g clip-path="url(#clip0_297080_1787)">
<path d="M62.5933 30.6025C62.5899 13.6978 48.8828 -0.00341734 31.9775 6.39362e-07C15.0728 0.00341861 1.37158 13.7109 1.375 30.6157C1.37793 43.9316 9.98877 55.7178 22.6738 59.7681C22.7949 59.8062 22.9209 59.8257 23.0474 59.8252C23.2886 59.8247 23.5249 59.7603 23.7324 59.6377C24.0024 59.478 24.2041 59.2241 24.2988 58.9248L32.0288 34.4248C34.1421 34.4141 35.8462 32.6919 35.835 30.5791C35.8242 28.4658 34.1025 26.7617 31.9893 26.7725C31.4209 26.7749 30.8599 26.9058 30.3491 27.1553L20.1372 16.9419C19.6304 16.4526 18.8232 16.4668 18.334 16.9731C17.8564 17.4678 17.8564 18.251 18.334 18.7456L28.5405 28.9639C27.7573 30.5625 28.2051 32.4922 29.6133 33.582L22.248 56.9277C7.69238 51.5659 0.239258 35.4199 5.60108 20.8643C10.9629 6.30859 27.1089 -1.14453 41.6646 4.21729C56.2202 9.5791 63.6733 25.7256 58.3115 40.2808C55.6919 47.3921 50.3096 53.1431 43.3872 56.2275L42.5913 52.479C42.4458 51.79 41.7686 51.3496 41.0796 51.4956C40.8623 51.542 40.6606 51.6441 40.4946 51.792L32.8208 58.6431C32.2944 59.1113 32.2476 59.9175 32.7163 60.4439C32.8687 60.6148 33.064 60.7417 33.2827 60.8115L43.0801 63.9385C43.7505 64.1538 44.4688 63.7852 44.6841 63.1143C44.7524 62.9024 44.7637 62.6768 44.7178 62.459L43.9356 58.7808C55.2642 54.0049 62.6196 42.8965 62.5933 30.6025ZM31.9844 29.3272C32.6885 29.3272 33.2598 29.8984 33.2598 30.6025C33.2598 31.3071 32.6885 31.8779 31.9844 31.8779C31.2798 31.8779 30.709 31.3071 30.709 30.6025C30.709 29.8984 31.2798 29.3272 31.9844 29.3272ZM36.1851 59.0552L40.5532 55.1587L41.7588 60.8394L36.1851 59.0552Z" fill="#2E2F42"/>
<path d="M30.709 6.37012V8.9209C30.709 9.62549 31.2798 10.1963 31.9844 10.1963C32.6885 10.1963 33.2598 9.62549 33.2598 8.9209V6.37012C33.2598 5.66602 32.6885 5.09473 31.9844 5.09473C31.2798 5.09473 30.709 5.66602 30.709 6.37012Z" fill="#4D5AE5"/>
<path d="M7.75195 29.3271C7.04736 29.3271 6.47656 29.8984 6.47656 30.6025C6.47656 31.3071 7.04736 31.8779 7.75195 31.8779H10.3027C11.0073 31.8779 11.5781 31.3071 11.5781 30.6025C11.5781 29.8984 11.0073 29.3271 10.3027 29.3271H7.75195Z" fill="#4D5AE5"/>
<path d="M56.2162 31.8779C56.9208 31.8779 57.4916 31.3071 57.4916 30.6025C57.4916 29.8984 56.9208 29.3271 56.2162 29.3271H53.6655C52.9614 29.3271 52.3901 29.8984 52.3901 30.6025C52.3901 31.3071 52.9614 31.8779 53.6655 31.8779H56.2162Z" fill="#4D5AE5"/>
</g>
<defs>
<clipPath id="clip0_297080_1787">
<rect width="64" height="64" fill="white"/>
</clipPath>
</defs>
</symbol>

<symbol id="diagram" width="64" height="64" fill="none" viewbox="0 0 64 64">
<g clip-path="url(#clip0_297080_1794)">
 <path d="M29.8511 29.9292H31.9833V39.5242H29.8511V29.9292Z" fill="#4D5AE5"/>
 <path d="M38.3799 34.1936H40.5121V39.5242H38.3799V34.1936Z" fill="#4D5AE5"/>
 <path d="M21.3221 37.392H23.4544V39.5242H21.3221V37.392Z" fill="#4D5AE5"/>
 <path d="M14.9255 36.3258H17.0578V39.5241H14.9255V36.3258Z" fill="#4D5AE5"/>
 <path d="M3.19833 56.5819H54.3715C56.1378 56.5819 57.5699 55.1499 57.5699 53.3836V49.1192C57.5699 47.3529 56.1378 45.9209 54.3715 45.9209H53.3054V19.3343L59.3611 13.5977C60.7666 14.2905 62.4678 13.8699 63.3876 12.6003C64.308 11.3312 64.1789 9.58364 63.0826 8.46339C61.9863 7.34314 60.2424 7.17604 58.953 8.06776C57.6641 8.96 57.206 10.6513 57.8681 12.0719L53.3054 16.3973V13.9376C53.3054 12.1713 51.8734 10.7393 50.1071 10.7393H7.46276C5.6965 10.7393 4.26443 12.1713 4.26443 13.9376V45.9209H3.19833C1.43206 45.9209 0 47.3529 0 49.1192V53.3836C0 55.1499 1.43206 56.5819 3.19833 56.5819ZM60.7682 9.67317C61.3569 9.67317 61.8343 10.1505 61.8343 10.7393C61.8343 11.328 61.3569 11.8054 60.7682 11.8054C60.1794 11.8054 59.7021 11.328 59.7021 10.7393C59.7021 10.1505 60.1794 9.67317 60.7682 9.67317ZM6.39665 13.9376C6.39665 13.3489 6.874 12.8715 7.46276 12.8715H50.1071C50.6958 12.8715 51.1732 13.3489 51.1732 13.9376V18.4149L49.041 20.441V16.0698C49.041 15.4811 48.5636 15.0037 47.9749 15.0037H9.59498C9.00622 15.0037 8.52887 15.4811 8.52887 16.0698V42.7225C8.52887 43.3113 9.00622 43.7886 9.59498 43.7886H47.9749C48.5636 43.7886 49.041 43.3113 49.041 42.7225V23.3738L51.1732 21.3535V45.9209H6.39665V13.9376ZM15.9916 27.797C14.5492 27.7929 13.2826 28.7538 12.899 30.1442C12.5153 31.5346 13.1093 33.0094 14.3498 33.7455C15.5898 34.4815 17.1697 34.2967 18.2061 33.2936L21.912 35.1531C22.3425 35.3686 22.8646 35.2676 23.1847 34.9079L31.0624 26.0453L38.8062 31.848C39.2216 32.1593 39.8016 32.126 40.1784 31.7694L46.9088 25.3941V41.6564H10.6611V17.1359H46.9088V22.4566L39.3658 29.5997L31.5569 23.7455C31.1134 23.4134 30.4892 23.4758 30.1207 23.8897L22.1348 32.8751L19.1493 31.3821C19.1712 31.2541 19.1847 31.125 19.19 30.9953C19.19 29.2291 17.7579 27.797 15.9916 27.797ZM17.0577 30.9953C17.0577 31.5841 16.5804 32.0615 15.9916 32.0615C15.4029 32.0615 14.9255 31.5841 14.9255 30.9953C14.9255 30.4066 15.4029 29.9292 15.9916 29.9292C16.5804 29.9292 17.0577 30.4066 17.0577 30.9953ZM23.4544 48.0531H34.1155V49.1192C34.1155 49.7079 33.6381 50.1853 33.0494 50.1853H24.5205C23.9317 50.1853 23.4544 49.7079 23.4544 49.1192V48.0531ZM2.13222 49.1192C2.13222 48.5304 2.60957 48.0531 3.19833 48.0531H21.3222V49.1192C21.3222 50.8855 22.7542 52.3175 24.5205 52.3175H33.0494C34.8156 52.3175 36.2477 50.8855 36.2477 49.1192V48.0531H54.3715C54.9603 48.0531 55.4376 48.5304 55.4376 49.1192V53.3836C55.4376 53.9724 54.9603 54.4497 54.3715 54.4497H3.19833C2.60957 54.4497 2.13222 53.9724 2.13222 53.3836V49.1192Z" fill="#2E2F42"/>
</g>
<defs>
<clipPath id="clip0_297080_1794">
 <rect width="64" height="64" fill="white"/>
</clipPath>
</defs>
</symbol>

<symbol id="astronaut" width="64" height="64" fill="none" viewbox="0 0 64 64">
  <path d="M63.9481 9.04812C63.8222 8.66299 63.4894 8.38149 63.0873 8.32274L59.2665 7.76698L57.5566 4.30455C57.1982 3.57492 56.0025 3.57492 55.6441 4.30455L53.9342 7.76698L50.1132 8.32286C49.7111 8.38149 49.3784 8.66212 49.2514 9.04825C49.1266 9.43438 49.23 9.85889 49.5212 10.1416L52.2872 12.8372L51.6344 16.6431C51.5661 17.0431 51.7304 17.4474 52.0579 17.6864C52.3897 17.9275 52.8227 17.9573 53.1822 17.7674L56.5998 15.97L60.0175 17.7674C60.1733 17.8495 60.345 17.89 60.5146 17.89C60.7354 17.89 60.9563 17.8218 61.1419 17.6863C61.4704 17.4474 61.6347 17.043 61.5654 16.643L60.9127 12.8371L63.6786 10.1415C63.9683 9.85776 64.073 9.43425 63.9481 9.04812ZM59.0223 11.702C58.7716 11.9463 58.6564 12.3004 58.7161 12.6461L59.098 14.8743L57.097 13.8226C56.9412 13.7404 56.7706 13.6999 56.5998 13.6999C56.4292 13.6999 56.2596 13.7404 56.1027 13.8226L54.1016 14.8743L54.4834 12.6461C54.5432 12.3004 54.4279 11.9474 54.1773 11.702L52.557 10.1234L54.7949 9.79801C55.1427 9.74788 55.4424 9.52926 55.5982 9.2145L56.5987 7.18785L57.5992 9.2145C57.755 9.52913 58.0547 9.74788 58.4025 9.79801L60.6404 10.1234L59.0223 11.702Z" fill="#4D5AE5"/>
<path d="M52.267 41.0444H50.1335V43.1778H52.267V41.0444Z" fill="#4D5AE5"/>
<path d="M52.267 45.3112H50.1335V47.4446H52.267V45.3112Z" fill="#4D5AE5"/>
<path d="M54.4004 43.1778H52.267V45.3112H54.4004V43.1778Z" fill="#4D5AE5"/>
<path d="M50.1337 43.1778H48.0002V45.3112H50.1337V43.1778Z" fill="#4D5AE5"/>
<path d="M44.8001 52.778H42.6667V54.9113H44.8001V52.778Z" fill="#4D5AE5"/>
<path d="M44.8001 57.0446H42.6667V59.1781H44.8001V57.0446Z" fill="#4D5AE5"/>
<path d="M46.9336 54.9113H44.8002V57.0448H46.9336V54.9113Z" fill="#4D5AE5"/>
<path d="M42.6667 54.9113H40.5333V57.0448H42.6667V54.9113Z" fill="#4D5AE5"/>
<path d="M32 48.5113H29.8666V50.6447H32V48.5113Z" fill="#4D5AE5"/>
<path d="M32 52.778H29.8666V54.9113H32V52.778Z" fill="#4D5AE5"/>
<path d="M34.1334 50.6445H32V52.7779H34.1334V50.6445Z" fill="#4D5AE5"/>
<path d="M29.8666 50.6445H27.7332V52.7779H29.8666V50.6445Z" fill="#4D5AE5"/>
<path d="M11.733 12.2439H9.59961V14.3773H11.733V12.2439Z" fill="#4D5AE5"/>
<path d="M11.733 16.5108H9.59961V18.6442H11.733V16.5108Z" fill="#4D5AE5"/>
<path d="M13.8663 14.3774H11.7329V16.5108H13.8663V14.3774Z" fill="#4D5AE5"/>
<path d="M9.59959 14.3774H7.46619V16.5108H9.59959V14.3774Z" fill="#4D5AE5"/>
<path d="M49.4295 28.3189C48.8546 27.5434 48.0109 27.0443 47.053 26.9098C46.0908 26.7733 45.1414 27.026 44.3734 27.6138L41.8699 29.5327L41.8688 29.5338L38.0734 32.368L35.3577 31.2864C40.2004 29.1136 43.585 24.2698 43.585 18.6462C43.585 11.0002 37.3396 4.77933 29.6627 4.77933C21.9858 4.77933 15.7405 11.0002 15.7405 18.6462C15.7405 21.4175 16.5692 23.9945 17.9805 26.163L12.4529 26.115C12.4497 26.115 12.4465 26.115 12.4433 26.115C12.4262 26.115 12.4124 26.1235 12.3964 26.1247C12.2908 26.1289 12.1873 26.1503 12.086 26.1865C12.0604 26.1962 12.0338 26.2015 12.0093 26.2132C11.9965 26.2185 11.9837 26.2195 11.9709 26.2259L5.50468 29.4185C5.50356 29.4185 5.50256 29.4185 5.50256 29.4195L1.71575 31.2405C1.67412 31.2586 1.6315 31.2831 1.58987 31.3109C0.0804746 32.3156 -0.433659 34.289 0.393104 35.9018C0.833611 36.7594 1.5835 37.391 2.50514 37.68C2.86039 37.7908 3.22302 37.8453 3.58353 37.8453C4.16279 37.8453 4.73667 37.7035 5.26243 37.423L8.03798 35.9467L12.566 33.6085L15.2797 33.5925L4.39629 44.4237C4.39529 44.4248 4.39417 44.4248 4.39304 44.4258L1.71563 47.0925C1.08312 47.7219 0.73536 48.557 0.73536 49.4478C0.73536 50.3374 1.08312 51.1747 1.71563 51.8052C2.36526 52.4516 3.21965 52.7758 4.07404 52.7758C4.92955 52.7758 5.78281 52.4516 6.43457 51.8052L9.06287 49.1875L12.5445 46.588L14.3462 48.3821L10.8229 51.8904C10.8219 51.8916 10.8208 51.8916 10.8196 51.8926L8.14223 54.5592C7.50972 55.1886 7.16196 56.0237 7.16196 56.9145C7.16196 57.8041 7.50972 58.6414 8.14223 59.2719C8.79186 59.9183 9.64738 60.2426 10.5018 60.2426C11.3562 60.2426 12.2117 59.9183 12.8623 59.2719L15.5407 56.6052L19.8255 52.3386C19.8267 52.3374 19.8267 52.3364 19.8277 52.3353L21.8469 50.3353L21.8394 50.3278C21.8522 50.315 21.8703 50.3106 21.8832 50.2969L32.2151 38.9805L39.1571 39.9682C39.2072 39.9757 39.2573 39.9789 39.3075 39.9789C39.4366 39.9789 39.5613 39.948 39.6819 39.9021C39.7171 39.8894 39.748 39.8722 39.7811 39.8552C39.8195 39.836 39.86 39.8254 39.8964 39.8009L46.3231 35.5342C46.3466 35.5182 46.3593 35.4925 46.3817 35.4755C46.4073 35.4553 46.4393 35.4468 46.4627 35.4243L49.0056 33.0424C50.3288 31.8026 50.5111 29.7717 49.4295 28.3189ZM4.26079 35.5403C3.91416 35.7259 3.52053 35.7632 3.14402 35.6438C2.77064 35.5275 2.46776 35.2725 2.29063 34.928C1.9685 34.3008 2.15513 33.537 2.71939 33.1243L5.34668 31.8602L5.97919 33.7088L6.24482 34.4853L4.26079 35.5403ZM11.255 31.8849L8.15848 33.4849L7.64759 31.9915L7.28071 30.9184L11.3342 28.9172L11.255 31.8849ZM41.4539 18.644C41.4539 20.4808 41.0155 22.2132 40.256 23.763L31.8932 19.9646C31.8057 18.8179 31.2106 17.8142 30.3167 17.189L33.2447 7.46837C38.0001 8.98102 41.4539 13.4173 41.4539 18.644ZM17.876 18.644C17.876 12.1746 23.1646 6.91049 29.6649 6.91049C30.1706 6.91049 30.6655 6.95311 31.1551 7.01499L28.291 16.5224C28.2527 16.5213 28.2164 16.5106 28.1769 16.5106C26.1118 16.5106 24.4317 18.1853 24.4317 20.2441C24.4317 22.3027 26.1118 23.9775 28.1769 23.9775C29.5657 23.9775 30.7657 23.2106 31.4132 22.0883L39.1381 25.5978C36.9887 28.4906 33.5486 30.3776 29.6648 30.3776C23.1646 30.3776 17.876 25.1135 17.876 18.644ZM29.7887 20.2441C29.7887 21.1262 29.0654 21.8441 28.1769 21.8441C27.2884 21.8441 26.5651 21.1262 26.5651 20.2441C26.5651 19.3619 27.2884 18.644 28.1769 18.644C29.0654 18.644 29.7887 19.3619 29.7887 20.2441ZM4.92968 50.2925C4.45717 50.7608 3.69228 50.7598 3.2209 50.2936C2.99365 50.0664 2.86889 49.7668 2.86889 49.4478C2.86889 49.1299 2.99365 48.8301 3.2209 48.6051L5.14505 46.6882L6.84746 48.3832L4.92968 50.2925ZM11.3574 57.7594C10.8849 58.2276 10.119 58.2288 9.6475 57.7605C9.42025 57.5333 9.29549 57.2336 9.29549 56.9146C9.29549 56.5967 9.42025 56.297 9.6475 56.072L11.5729 54.1541L12.3783 54.9552L13.2764 55.8491L11.3574 57.7594ZM18.3208 50.8217C18.3196 50.8227 18.3186 50.8227 18.3175 50.8238L14.7878 54.3438L13.9824 53.5427L13.0843 52.6488L16.6107 49.1384C16.6107 49.1384 16.6107 49.1384 16.6107 49.1374C16.6119 49.1363 16.6129 49.1363 16.614 49.1353C16.694 49.0553 16.7441 48.9593 16.7932 48.8644C16.8071 48.8366 16.8337 48.8131 16.8455 48.7844C16.8786 48.7023 16.8839 48.6138 16.8967 48.5272C16.9031 48.4781 16.9245 48.4324 16.9245 48.3821C16.9245 48.3106 16.8989 48.2414 16.884 48.1709C16.8712 48.1069 16.8712 48.0417 16.8466 47.98C16.8061 47.8797 16.7367 47.7912 16.6642 47.7047C16.644 47.6812 16.6365 47.6514 16.6141 47.629C16.6141 47.629 16.6141 47.629 16.613 47.629C16.6119 47.628 16.6119 47.6257 16.6109 47.6247L13.3969 44.4247C13.3628 44.3906 13.3191 44.3767 13.2807 44.3479C13.2242 44.3042 13.1698 44.2637 13.1068 44.2327C13.0461 44.2028 12.9842 44.1847 12.9202 44.1676C12.8519 44.1483 12.7858 44.1334 12.7143 44.1281C12.6492 44.1238 12.5884 44.1302 12.5234 44.1377C12.4519 44.1462 12.3848 44.1558 12.3154 44.1782C12.2482 44.1996 12.1885 44.2326 12.1267 44.2678C12.0872 44.2902 12.0424 44.2977 12.005 44.3254L8.45836 46.973L6.6567 45.1788L11.4547 40.4065L20.1759 48.9838L18.3208 50.8217ZM31.9584 36.7883C31.9275 36.7841 31.8986 36.7958 31.8677 36.7937C31.7898 36.7894 31.7152 36.7948 31.6373 36.8076C31.5766 36.8182 31.519 36.8299 31.4613 36.8502C31.3931 36.8737 31.3312 36.9057 31.2682 36.9441C31.2085 36.9803 31.1541 37.0187 31.1018 37.0667C31.0762 37.0891 31.0453 37.0998 31.0218 37.1253L21.6253 47.4167L12.9692 38.9035L18.6354 33.2671C19.0525 32.8511 19.0546 32.1759 18.6386 31.7577C18.4285 31.5476 18.1523 31.4441 17.876 31.4452V31.4442L13.4386 31.4709L13.4941 28.2559L19.7022 28.3093C22.2323 30.8971 25.7609 32.511 29.6649 32.511C30.5396 32.511 31.393 32.4204 32.2239 32.2656C32.3039 32.3296 32.3827 32.3948 32.4831 32.4353L37.3024 34.3553L37.6074 35.8721L37.9637 37.6427L31.9584 36.7883ZM40.0406 37.1446L39.4145 34.0288L42.3073 31.8687L43.0647 32.8735L44.2007 34.3818L40.0406 37.1446ZM47.5478 31.4826L45.8721 33.0528L44.0097 30.5802L45.6726 29.3056C45.9829 29.0667 46.3745 28.9696 46.7585 29.0197C47.1446 29.0741 47.486 29.2757 47.7185 29.5882C48.1516 30.1717 48.078 30.9856 47.5478 31.4826Z" fill="#2E2F42"/>
<path d="M27.2041 37.0881L22.9182 32.8214C22.5033 32.4065 21.829 32.4065 21.413 32.8214L17.1282 37.0881C16.9277 37.2897 16.8146 37.5606 16.8146 37.8443C16.8146 38.1281 16.9266 38.4001 17.1282 38.6006L21.413 42.8673C21.621 43.0742 21.8942 43.1777 22.1662 43.1777C22.4382 43.1777 22.7112 43.0742 22.9182 42.8673L27.2041 38.6006C27.4046 38.4001 27.5187 38.1281 27.5187 37.8443C27.5187 37.5606 27.4056 37.2886 27.2041 37.0881ZM22.1662 40.606L19.3927 37.8443L22.1662 35.0827L24.9406 37.8443L22.1662 40.606Z" fill="#2E2F42"/>
<path d="M34.3285 10.1415L33.8132 12.2131C33.9551 12.2483 37.2885 13.1166 37.2885 16.5108H39.4219C39.4218 12.4765 36.0906 10.5799 34.3285 10.1415Z" fill="#2E2F42"/>
<path d="M39.422 18.644H37.2886V20.7775H39.422V18.644Z" fill="#2E2F42"/>
</symbol>


<!-- SOCIAL ICONS -->

<symbol id="instagram" viewBox="0 0 32 32">
<path d="M31.968 9.408c-0.074-1.7-0.35-2.87-0.744-3.882-0.424-1.112-1.053-2.060-1.849-2.839l-0.001-0.001c-0.78-0.791-1.724-1.417-2.778-1.824l-0.054-0.018c-1.020-0.394-2.18-0.67-3.88-0.744-1.716-0.080-2.262-0.1-6.602-0.1-4.346 0-4.89 0.020-6.596 0.094-1.7 0.074-2.868 0.35-3.88 0.744-1.112 0.424-2.060 1.053-2.839 1.849l-0.001 0.001c-0.792 0.78-1.419 1.724-1.826 2.778l-0.018 0.054c-0.394 1.020-0.668 2.18-0.744 3.88-0.080 1.714-0.1 2.26-0.1 6.602 0 4.346 0.020 4.89 0.094 6.596 0.074 1.7 0.35 2.87 0.744 3.882 0.406 1.076 1.038 2.038 1.85 2.838 0.8 0.812 1.77 1.444 2.832 1.844 1.020 0.394 2.18 0.67 3.882 0.744 1.706 0.076 2.25 0.094 6.596 0.094 4.344 0 4.888-0.020 6.594-0.094 1.7-0.074 2.87-0.35 3.882-0.744 2.157-0.85 3.832-2.525 4.663-4.627l0.019-0.055c0.394-1.020 0.67-2.18 0.744-3.882 0.076-1.706 0.094-2.25 0.094-6.596 0-4.344-0.006-4.888-0.080-6.594zM29.088 22.472c-0.070 1.564-0.332 2.408-0.552 2.97-0.551 1.4-1.638 2.488-3.002 3.027l-0.036 0.013c-0.562 0.218-1.412 0.48-2.968 0.548-1.688 0.076-2.194 0.094-6.464 0.094s-4.782-0.020-6.464-0.094c-1.564-0.068-2.408-0.33-2.97-0.55-0.721-0.269-1.335-0.676-1.837-1.193l-0.001-0.001c-0.516-0.504-0.923-1.118-1.183-1.804l-0.011-0.034c-0.22-0.562-0.48-1.412-0.55-2.968-0.074-1.688-0.094-2.196-0.094-6.464 0-4.27 0.020-4.782 0.094-6.464 0.070-1.564 0.332-2.408 0.55-2.97 0.256-0.694 0.664-1.324 1.2-1.838 0.52-0.532 1.144-0.938 1.84-1.194 0.56-0.22 1.412-0.48 2.968-0.55 1.688-0.074 2.194-0.094 6.464-0.094 4.276 0 4.78 0.020 6.464 0.094 1.562 0.070 2.406 0.332 2.968 0.55 0.694 0.256 1.326 0.662 1.84 1.194 0.53 0.52 0.936 1.144 1.192 1.84 0.22 0.56 0.482 1.41 0.55 2.968 0.076 1.688 0.094 2.194 0.094 6.464s-0.018 4.77-0.092 6.456z"></path>
<path d="M16.060 7.782c-4.462 0.102-8.041 3.743-8.041 8.22s3.578 8.118 8.031 8.22l0.009 0c4.462-0.102 8.041-3.743 8.041-8.22s-3.578-8.118-8.031-8.22l-0.009-0zM16.060 21.336c-2.946 0-5.334-2.388-5.334-5.334s2.388-5.334 5.334-5.334v0c2.946 0 5.334 2.388 5.334 5.334s-2.388 5.334-5.334 5.334v0zM26.524 7.458c0 1.060-0.86 1.92-1.92 1.92s-1.92-0.86-1.92-1.92v0c0-1.060 0.86-1.92 1.92-1.92s1.92 0.86 1.92 1.92v0z"></path>
</symbol>

<symbol id="twitter" viewBox="0 0 32 32">
<path d="M32 6.078c-1.1 0.494-2.376 0.858-3.712 1.029l-0.068 0.007c1.36-0.817 2.381-2.078 2.873-3.58l0.013-0.046c-1.197 0.723-2.591 1.274-4.076 1.574l-0.084 0.014c-1.2-1.279-2.901-2.076-4.788-2.076-3.623 0-6.56 2.937-6.56 6.56v0c0 0.52 0.044 1.020 0.152 1.496-5.468-0.276-10.278-2.878-13.495-6.828l-0.027-0.034c-0.563 0.949-0.895 2.091-0.895 3.311 0 2.264 1.145 4.261 2.888 5.442l0.023 0.015c-1.092-0.030-2.109-0.325-2.997-0.823l0.033 0.017v0.072c0.004 3.164 2.237 5.806 5.213 6.438l0.043 0.008c-0.501 0.137-1.075 0.216-1.669 0.216-0.018 0-0.036-0-0.054-0l0.003 0c-0.031 0.001-0.067 0.001-0.103 0.001-0.403 0-0.796-0.041-1.176-0.119l0.037 0.006c0.873 2.624 3.273 4.496 6.121 4.57l0.009 0c-2.214 1.744-5.044 2.798-8.12 2.798-0.005 0-0.010 0-0.015 0h0.001c-0.538 0-1.054-0.024-1.57-0.090 2.826 1.846 6.287 2.944 10.004 2.944 0.021 0 0.042-0 0.063-0h-0.003c12.072 0 18.672-10 18.672-18.668 0-0.29-0.010-0.57-0.024-0.848 1.299-0.937 2.391-2.066 3.258-3.359l0.030-0.047z"></path>
</symbol>

<symbol id="facebook" viewBox="0 0 32 32">
<path d="M21.33 5.314h2.92v-5.088c-1.238-0.144-2.672-0.226-4.125-0.226-0.046 0-0.092 0-0.138 0l0.007-0c-4.212 0-7.094 2.65-7.094 7.52v4.48h-4.65v5.688h4.648v14.312h5.698v-14.31h4.46l0.708-5.69h-5.17v-3.92c0.002-1.644 0.444-2.768 2.736-2.768z"></path>
</symbol>

<symbol id="linkedin" viewBox="0 0 32 32">
<path d="M31.992 32h0.008v-11.74c0-5.74-1.236-10.164-7.948-10.164-3.226 0-5.392 1.772-6.276 3.45h-0.094v-2.912h-6.362v21.366h6.628v-10.58c0-2.784 0.528-5.476 3.976-5.476 3.4 0 3.45 3.178 3.45 5.656v10.4h6.62zM0.528 10.636h6.634v21.364h-6.634v-21.364zM3.842 0c-2.12 0-3.84 1.72-3.84 3.84s1.72 3.88 3.84 3.88c2.122 0 3.844-1.76 3.844-3.88s-1.726-3.84-3.846-3.84z"></path>
</symbol>

<symbol id="client-1" viewBox="0 0 168 88">
  <path fill-rule="evenodd" clip-rule="evenodd" d="M67.6642 22L75.4477 28.2545L61 28.2473V58.5926H98.7636V46.9902L106.538 53.2377V22H67.6642ZM98.4219 46.2561L76.3527 28.5221H98.4219V46.2561ZM91.5697 54.1539H66.9756V33.7451H68.7141V52.7719H91.5697V54.1539ZM71.8802 64.2137L70.9637 62.6241H70.2072L71.5358 64.7283V65.9542H72.2219V64.7283L73.5506 62.6241H72.7968L71.8802 64.2137ZM75.259 62.6241H75.4217L76.913 65.9542H76.1972L75.8777 65.1743H74.3493L74.0305 65.9542H73.3174L74.8034 62.6241H74.9634H75.259ZM74.5354 64.7192H75.6913L75.1127 63.3065L74.5354 64.7192ZM79.3066 64.1674C79.2768 64.1355 79.2481 64.1045 79.2207 64.0742C79.1194 63.9613 79.0408 63.8524 78.9848 63.7472C78.9287 63.6404 78.9007 63.5306 78.9007 63.4178C78.9007 63.244 78.9431 63.0946 79.0281 62.9695C79.1131 62.8445 79.2334 62.7484 79.3889 62.6814C79.5443 62.6127 79.726 62.5784 79.9339 62.5784C80.1345 62.5784 80.3072 62.6127 80.4518 62.6814C80.5982 62.7484 80.7103 62.8376 80.788 62.9489C80.8675 63.0602 80.9073 63.1822 80.9073 63.3148C80.9073 63.42 80.8848 63.5161 80.8395 63.6031C80.7943 63.6899 80.732 63.7693 80.6524 63.8409C80.5729 63.9126 80.4807 63.9804 80.3758 64.0445L80.1016 64.2128L80.8834 64.9911C80.9092 64.9483 80.9325 64.9034 80.9534 64.8564C81.0204 64.71 81.0538 64.5477 81.0538 64.3692H81.6178C81.6178 64.5309 81.5988 64.6841 81.5608 64.829C81.5247 64.9738 81.466 65.108 81.3846 65.2314C81.3516 65.2827 81.3143 65.3317 81.2726 65.3784L81.8509 65.9542H81.0945L80.865 65.7265C80.7408 65.8061 80.6057 65.8682 80.4599 65.9131C80.2683 65.971 80.0641 66 79.8471 66C79.5849 66 79.3581 65.9595 79.1665 65.8788C78.9748 65.7979 78.8266 65.6866 78.7218 65.5448C78.6187 65.403 78.5672 65.2406 78.5672 65.0577C78.5672 64.9219 78.6006 64.803 78.6675 64.7008C78.7345 64.5972 78.8258 64.5011 78.9414 64.4127C79.0482 64.3309 79.17 64.2492 79.3066 64.1674ZM79.6306 64.502L79.5488 64.5522C79.453 64.6177 79.3815 64.6811 79.3346 64.7421C79.2894 64.8015 79.2596 64.8564 79.2451 64.9067C79.2306 64.9571 79.2234 65.0013 79.2234 65.0394C79.2234 65.1369 79.2478 65.2254 79.2966 65.3047C79.3472 65.384 79.4204 65.4472 79.5163 65.4945C79.6139 65.5402 79.7323 65.5631 79.8715 65.5631C80.0215 65.5631 80.167 65.5349 80.3081 65.4785C80.3787 65.4494 80.4458 65.4145 80.5091 65.3736L79.6306 64.502ZM79.7866 63.8938L80.0287 63.7562C80.1427 63.6923 80.224 63.6297 80.2729 63.5687C80.3216 63.5062 80.3461 63.4285 80.3461 63.3354C80.3461 63.2562 80.3099 63.183 80.2376 63.1158C80.1652 63.0488 80.0631 63.0152 79.9311 63.0152C79.8389 63.0152 79.7612 63.0335 79.698 63.0701C79.6347 63.1052 79.5868 63.1525 79.5543 63.212C79.5235 63.2699 79.5082 63.3347 79.5082 63.4063C79.5082 63.4749 79.5289 63.5458 79.5705 63.619C79.6121 63.6907 79.669 63.7662 79.7413 63.8454C79.7561 63.8614 79.7712 63.8774 79.7866 63.8938ZM86.694 64.8701H86.016C85.9962 65.0149 85.9546 65.1377 85.8913 65.2384C85.8299 65.3375 85.7386 65.4129 85.6175 65.4648C85.4981 65.5166 85.3419 65.5426 85.1484 65.5426C84.9893 65.5426 84.8528 65.5159 84.7389 65.4625C84.625 65.4092 84.531 65.3336 84.4569 65.236C84.3845 65.1385 84.3303 65.0218 84.2942 64.8861C84.2598 64.7489 84.2427 64.5964 84.2427 64.4287V64.1474C84.2427 63.9705 84.2617 63.8135 84.2996 63.6762C84.3393 63.5375 84.3981 63.4209 84.4758 63.3263C84.5536 63.2317 84.6503 63.1601 84.7661 63.1113C84.8817 63.0625 85.0173 63.0381 85.1728 63.0381C85.3626 63.0381 85.5162 63.0655 85.6337 63.1204C85.7513 63.1738 85.8399 63.2516 85.8995 63.3537C85.961 63.4559 86.0007 63.5786 86.0188 63.722H86.6967C86.6696 63.4994 86.5955 63.3019 86.4743 63.1296C86.355 62.9573 86.187 62.8223 85.97 62.7248C85.753 62.6272 85.4874 62.5784 85.1728 62.5784C84.9251 62.5784 84.7019 62.615 84.5029 62.6882C84.3059 62.7614 84.137 62.8673 83.9959 63.0061C83.8549 63.1433 83.7465 63.3087 83.6705 63.5024C83.5964 63.696 83.5593 63.9126 83.5593 64.152V64.4287C83.5593 64.668 83.5955 64.8846 83.6678 65.0783C83.7419 65.2719 83.8486 65.4374 83.9878 65.5746C84.127 65.7102 84.2942 65.8155 84.4894 65.8902C84.6847 65.9634 84.9044 66 85.1484 66C85.4666 66 85.7368 65.9512 85.9592 65.8536C86.1815 65.756 86.3541 65.6226 86.4771 65.4534C86.6001 65.2826 86.6724 65.0881 86.694 64.8701ZM90.4605 64.3806V64.1977C90.4605 63.9461 90.4207 63.7212 90.3412 63.523C90.2635 63.3233 90.1523 63.1532 90.0077 63.013C89.863 62.8711 89.6904 62.7637 89.4897 62.6904C89.289 62.6158 89.0667 62.5784 88.8227 62.5784C88.5804 62.5784 88.3589 62.6158 88.1584 62.6904C87.9594 62.7637 87.7868 62.8711 87.6404 63.013C87.4957 63.1532 87.3836 63.3233 87.3041 63.523C87.2246 63.7212 87.1848 63.9461 87.1848 64.1977V64.3806C87.1848 64.6323 87.2246 64.8579 87.3041 65.0577C87.3855 65.2574 87.4994 65.4274 87.6458 65.5677C87.7923 65.708 87.9649 65.8155 88.1637 65.8902C88.3644 65.9634 88.5859 66 88.8281 66C89.0721 66 89.2945 65.9634 89.4952 65.8902C89.6958 65.8155 89.8676 65.708 90.0103 65.5677C90.1549 65.4274 90.2661 65.2574 90.3439 65.0577C90.4216 64.8579 90.4605 64.6323 90.4605 64.3806ZM89.7799 64.1931V64.3806C89.7799 64.5667 89.7582 64.7314 89.7148 64.8747C89.6732 65.018 89.6118 65.1393 89.5304 65.2384C89.4491 65.3359 89.3497 65.4099 89.2322 65.4602C89.1147 65.509 88.9799 65.5334 88.8281 65.5334C88.678 65.5334 88.5443 65.509 88.4268 65.4602C88.3093 65.4099 88.208 65.3359 88.123 65.2384C88.04 65.1393 87.9766 65.018 87.9332 64.8747C87.8899 64.7314 87.8681 64.5667 87.8681 64.3806V64.1931C87.8681 64.0071 87.8899 63.8432 87.9332 63.7013C87.9766 63.558 88.039 63.4384 88.1204 63.3423C88.2034 63.2448 88.3039 63.1715 88.4214 63.1228C88.5389 63.0725 88.6726 63.0473 88.8227 63.0473C88.9727 63.0473 89.1074 63.0725 89.2267 63.1228C89.346 63.1715 89.4463 63.2448 89.5277 63.3423C89.6108 63.4384 89.6732 63.558 89.7148 63.7013C89.7582 63.8432 89.7799 64.0071 89.7799 64.1931Z" />
</symbol>


<symbol id="client-2" viewBox="0 0 168 88">
<path fill-rule="evenodd" clip-rule="evenodd" d="M80.9693 24.4831H80.8259C80.6054 24.4723 80.3849 24.468 80.1645 24.4637H80.1432H79.6863C79.2693 24.4637 78.8443 24.4723 78.422 24.4895C78.3902 24.4877 78.3582 24.4877 78.3264 24.4895C74.4998 24.6643 70.7508 25.435 67.2845 26.7596L66.8303 26.9361V45.6712L67.8928 45.3807C68.8251 45.1225 69.8185 44.8901 70.8465 44.6749C73.6253 44.1 76.4786 43.7945 79.3463 43.7647V46.2263C78.9665 46.2285 78.5973 46.2371 78.2281 46.2521H78.1404C75.9334 46.3497 73.7432 46.6206 71.6008 47.0612C68.8875 47.6086 66.27 48.4306 63.8102 49.5077V25.4793C66.3649 24.2785 69.1166 23.3766 71.9833 22.8004C74.5003 22.2767 77.0877 22.0079 79.6863 22H80.1352C80.6718 22.0108 81.1951 22.0301 81.6865 22.0602C82.9812 22.1335 84.2655 22.2984 85.5247 22.553V24.9758C84.3017 24.7462 83.0583 24.5952 81.806 24.524C81.7806 24.5222 81.7552 24.5205 81.7297 24.5187C81.4707 24.5009 81.2112 24.4831 80.9693 24.4831ZM86.2604 26.9597C86.9271 27.0006 87.6177 27.02 88.3163 27.02C91.0481 27.0119 93.7683 26.7308 96.4151 26.1829C99.1271 25.6334 101.744 24.8108 104.203 23.7343V47.3344C101.647 48.5345 98.8945 49.4364 96.0273 50.0133C93.5099 50.535 90.9227 50.8031 88.3243 50.8116C86.3554 50.8244 84.3924 50.6379 82.4806 50.2565V26.5035C82.9322 26.5875 83.397 26.6649 83.8698 26.7295C84.6454 26.8349 85.4635 26.9124 86.2604 26.9597ZM101.164 27.1426L100.102 27.4309C99.1244 27.6956 98.139 27.9323 97.1482 28.1432C94.2636 28.7405 91.299 29.047 88.3216 29.0555C87.6283 29.0555 86.9908 29.0404 86.3746 29.0081L85.5273 28.963V45.9616V48.236L86.2551 48.2876C86.9298 48.335 87.6257 48.3586 88.3269 48.3586C90.6721 48.3506 93.007 48.107 95.2782 47.6335C97.1484 47.2555 98.9679 46.7286 100.71 46.0606L101.164 45.8841V27.1426Z" />
<path d="M65.874 57.7186C65.7212 57.591 65.5371 57.4907 65.3335 57.4244C65.1299 57.358 64.9113 57.327 64.692 57.3335C64.4582 57.331 64.2262 57.3661 64.0093 57.4368C63.8105 57.5006 63.6298 57.5965 63.4781 57.7186C63.3281 57.8412 63.2114 57.9877 63.1354 58.149C63.0522 58.318 63.0106 58.4985 63.0133 58.6805V61.8908C63.0038 62.1171 63.0573 62.3421 63.17 62.5493C63.264 62.7138 63.3998 62.8604 63.5684 62.9796C63.7276 63.0876 63.9145 63.1655 64.1156 63.2077C64.3093 63.2516 64.5094 63.274 64.7106 63.2744C64.9324 63.2762 65.152 63.238 65.3534 63.1625C65.5525 63.0923 65.7329 62.9914 65.8846 62.8656C66.0325 62.7408 66.1505 62.5949 66.2326 62.4352C66.3177 62.2733 66.3611 62.0991 66.3601 61.9231V61.5638H65.3188V61.8499C65.3219 61.9477 65.3012 62.0449 65.2577 62.1361C65.2238 62.2045 65.1722 62.2661 65.1063 62.3169C65.0418 62.3589 64.9679 62.3903 64.8885 62.4094C64.8182 62.4283 64.7448 62.4384 64.6707 62.4395C64.5778 62.4482 64.4836 62.4369 64.3978 62.4067C64.312 62.3765 64.2375 62.3284 64.182 62.2674C64.0838 62.1384 64.0357 61.9885 64.0439 61.837V58.844C64.0374 58.678 64.0812 58.5133 64.1714 58.3642C64.2254 58.2964 64.3019 58.2423 64.3921 58.2081C64.4822 58.1738 64.5825 58.1608 64.6814 58.1705C64.7711 58.1679 64.8603 58.183 64.9412 58.2145C65.0222 58.246 65.0925 58.2929 65.1462 58.3512C65.2627 58.4745 65.3236 58.6264 65.3188 58.7816V59.0592H66.3494V58.7321C66.3515 58.54 66.3083 58.3494 66.222 58.1705C66.145 58.0023 66.0266 57.8486 65.874 57.7186V57.7186Z" />
<path d="M72.0604 57.6821C71.7283 57.4562 71.3093 57.3313 70.8757 57.3292C70.6636 57.3299 70.4533 57.3605 70.2541 57.4196C70.0519 57.478 69.8653 57.5671 69.7043 57.6821C69.5318 57.8071 69.3942 57.9604 69.3006 58.1318C69.1957 58.3279 69.144 58.54 69.1492 58.7537V61.8328C69.142 62.0494 69.1937 62.2646 69.3006 62.4632C69.3948 62.6288 69.5326 62.7757 69.7043 62.8936C69.8635 63.0127 70.0504 63.1049 70.2541 63.1647C70.4533 63.2238 70.6636 63.2543 70.8757 63.2551C71.0878 63.2547 71.2982 63.2241 71.4972 63.1647C71.7044 63.104 71.8955 63.012 72.0604 62.8936C72.2265 62.7735 72.3603 62.627 72.4535 62.4632C72.5604 62.2646 72.6121 62.0494 72.6049 61.8328V58.7537C72.61 58.54 72.5584 58.3279 72.4535 58.1318C72.3608 57.9621 72.2271 57.8092 72.0604 57.6821V57.6821ZM71.5743 61.8328C71.5831 61.9148 71.569 61.9975 71.5331 62.0745C71.4973 62.1516 71.4405 62.2212 71.3671 62.2782C71.2296 62.3711 71.0561 62.422 70.877 62.422C70.6979 62.422 70.5245 62.3711 70.3869 62.2782C70.3135 62.2212 70.2568 62.1516 70.2209 62.0745C70.185 61.9975 70.171 61.9148 70.1798 61.8328V58.7537C70.171 58.6716 70.185 58.589 70.2209 58.5119C70.2568 58.4348 70.3135 58.3652 70.3869 58.3082C70.5245 58.2153 70.6979 58.1644 70.877 58.1644C71.0561 58.1644 71.2296 58.2153 71.3671 58.3082C71.4405 58.3652 71.4973 58.4348 71.5331 58.5119C71.569 58.589 71.5831 58.6716 71.5743 58.7537V61.8328Z" />
<path d="M80.1856 63.2078V57.3788H79.1843L77.8694 60.4644H77.8508L76.5254 57.3788H75.5346V63.2078H76.5679V59.6618H76.5865L77.5985 62.1685H78.1138L79.1338 59.6618H79.1524V63.2078H80.1856Z" />
<path d="M86.0559 57.7875C85.8968 57.6437 85.696 57.5342 85.4716 57.469C85.2297 57.4056 84.9766 57.3751 84.7225 57.3787H83.1872V63.2077H84.2178V60.9312H84.7491C85.0706 60.943 85.3906 60.8882 85.6787 60.7719C85.9131 60.6671 86.1084 60.5133 86.2445 60.3265C86.3637 60.1715 86.4441 59.9989 86.4809 59.8187C86.5215 59.5994 86.5401 59.3778 86.5367 59.156C86.5467 58.8761 86.5128 58.5963 86.4358 58.3233C86.367 58.1216 86.2363 57.9372 86.0559 57.7875V57.7875ZM85.5247 59.5648C85.5202 59.6704 85.4876 59.7739 85.4291 59.8682C85.3702 59.9578 85.277 60.0296 85.1634 60.0726C85.0108 60.1276 84.8442 60.1527 84.6774 60.1458H84.2072V58.164H84.7385C84.8984 58.1577 85.0579 58.1828 85.2033 58.2372C85.3099 58.2865 85.3945 58.3618 85.445 58.4524C85.5013 58.5548 85.532 58.6652 85.5353 58.7773C85.5353 58.8999 85.5353 59.029 85.5353 59.1646C85.5353 59.3002 85.5459 59.44 85.5353 59.5648H85.5247Z" />
<path d="M90.9381 57.3788H90.0934L88.4996 63.2078H89.5303L89.8331 61.9555H91.2382L91.541 63.2078H92.5716L90.9381 57.3788ZM89.9871 61.1615L90.4945 59.0485H90.5131L91.0177 61.1615H89.9871Z" />
<path d="M97.5971 60.8904H97.5786L96.022 57.3788H95.0312V63.2078H96.0619V59.7027H96.0831L97.6582 63.2078H98.6278V57.3788H97.5971V60.8904Z" />
<path d="M103.895 57.3788L103.066 59.6962H103.045L102.216 57.3788H101.125L102.54 60.7441V63.2078H103.571V60.7441L104.987 57.3788H103.895Z" />
<path d="M63 64.8537H63.4967V65.9769H63.834V64.8537H64.3281V64.6235H63V64.8537Z" />
<path d="M67.1756 64.6235L66.5248 65.9769H66.8834L67.0215 65.6692H67.6909L67.8343 65.9769H68.2008L67.5341 64.6235H67.1756ZM67.1224 65.4411L67.3509 64.9398L67.5793 65.4411H67.1224Z" />
<path d="M71.3033 65.4778H71.6911V65.6521C71.5779 65.7253 71.4375 65.7655 71.2927 65.7662C71.225 65.7692 71.1573 65.7591 71.0954 65.7366C71.0334 65.7142 70.9791 65.68 70.9368 65.6371C70.8477 65.534 70.8038 65.4098 70.8119 65.2842C70.8119 64.983 70.974 64.8323 71.2954 64.8323C71.38 64.8255 71.4648 64.8435 71.5344 64.883C71.6041 64.9224 71.654 64.9808 71.6752 65.0475L72.0072 64.9959C71.9355 64.7312 71.6991 64.5978 71.2954 64.5978C71.0794 64.5931 70.8694 64.6555 70.7083 64.7721C70.6237 64.8394 70.5583 64.9209 70.5165 65.0108C70.4748 65.1008 70.4577 65.197 70.4666 65.2928C70.4568 65.478 70.5337 65.6593 70.6818 65.8006C70.7641 65.869 70.8637 65.9221 70.9737 65.9562C71.0838 65.9904 71.2017 66.0048 71.3193 65.9986C71.582 66.0045 71.8373 65.9273 72.0311 65.7834V65.2498H71.3033V65.4778Z" />
<path d="M75.5187 64.6235H75.1787V65.9769H76.3554V65.7467H75.5187V64.6235Z" />
<path d="M79.0833 64.6235H78.7433V65.9769H79.0833V64.6235Z" />
<path d="M82.5683 65.5272L81.8803 64.6235H81.551V65.9769H81.8671V65.0926L82.5417 65.9769H82.8791V64.6235H82.5683V65.5272Z" />
<path d="M85.7186 65.3809H86.5553V65.1506H85.7186V64.8537H86.6191V64.6235H85.3786V65.9769H86.6536V65.7467H85.7186V65.3809Z" />
<path d="M93.3578 65.1571H92.6964V64.6235H92.3591V65.9769H92.6964V65.3852H93.3578V65.9769H93.6952V64.6235H93.3578V65.1571Z" />
<path d="M96.5266 65.3809H97.366V65.1506H96.5266V64.8537H97.4297V64.6235H96.1893V65.9769H97.4616V65.7467H96.5266V65.3809Z" />
<path d="M100.824 65.3809C101.117 65.3444 101.265 65.2196 101.265 65.0044C101.274 64.9468 101.263 64.8885 101.234 64.8355C101.205 64.7825 101.159 64.7367 101.101 64.7031C100.949 64.6416 100.779 64.6141 100.609 64.6235H99.8974V65.977H100.235V65.4111H100.301C100.373 65.4075 100.445 65.4178 100.511 65.4412C100.56 65.4657 100.601 65.4997 100.63 65.5402L100.997 65.9705H101.401L101.196 65.7058C101.106 65.5752 100.978 65.4638 100.824 65.3809V65.3809ZM100.484 65.1937H100.235V64.8538H100.5C100.616 64.8462 100.732 64.8572 100.843 64.886C100.868 64.9035 100.887 64.9253 100.9 64.9496C100.912 64.974 100.918 65.0004 100.917 65.0269C100.915 65.0533 100.906 65.0791 100.891 65.1025C100.875 65.1258 100.854 65.1459 100.827 65.1615C100.716 65.1889 100.6 65.1998 100.484 65.1937V65.1937Z" />
<path d="M104.065 65.3809H104.902V65.1506H104.065V64.8537H104.968V64.6235H103.725V65.9769H105V65.7467H104.065V65.3809Z" />
</symbol>



<symbol id="client-3" viewBox="0 0 168 88">
<path d="M67.6496 65.1473C67.668 65.1477 67.6862 65.1512 67.703 65.1573C67.7198 65.1636 67.7349 65.1725 67.7475 65.1836L68 65.4115C67.804 65.596 67.5617 65.7434 67.2897 65.844C66.9713 65.9537 66.6279 66.0066 66.2827 65.9993C65.9582 66.0048 65.6358 65.9554 65.3356 65.8543C65.0648 65.7614 64.8215 65.6219 64.6221 65.4451C64.4187 65.2617 64.2619 65.047 64.1612 64.8132C64.0509 64.5527 63.9964 64.2784 64.0002 64.0026C63.9957 63.725 64.0546 63.4491 64.1739 63.1893C64.2841 62.9541 64.4505 62.7393 64.6631 62.5574C64.8787 62.379 65.1366 62.2389 65.4208 62.1456C65.7318 62.0468 66.0629 61.9975 66.3963 62.0006C66.7061 61.9944 67.0142 62.0393 67.3024 62.1326C67.5524 62.2217 67.7819 62.3452 67.9811 62.4978L67.7696 62.7412C67.7549 62.7584 67.7368 62.7733 67.7159 62.7853C67.691 62.7993 67.6608 62.8058 67.6307 62.8035C67.5979 62.8016 67.5663 62.7926 67.5391 62.7776L67.4254 62.7128L67.2676 62.6299C67.1994 62.5992 67.1288 62.5724 67.0561 62.5496C66.9625 62.5222 66.8664 62.5005 66.7688 62.4849C66.645 62.4662 66.5191 62.4575 66.3931 62.459C66.153 62.4565 65.9147 62.4935 65.6923 62.5678C65.4848 62.6365 65.2976 62.7407 65.143 62.8733C64.9856 63.0144 64.8643 63.18 64.7863 63.3603C64.6973 63.5665 64.6535 63.7839 64.6568 64.0026C64.6531 64.2246 64.6969 64.4455 64.7863 64.6552C64.8633 64.8339 64.9823 64.9984 65.1367 65.1395C65.2813 65.2711 65.4605 65.3737 65.6607 65.4399C65.8668 65.51 66.088 65.5452 66.311 65.5436C66.4399 65.5451 66.5687 65.5382 66.6962 65.5228C66.9044 65.502 67.1041 65.4427 67.2803 65.3492C67.3686 65.3015 67.4521 65.2478 67.5296 65.1887C67.5621 65.1634 67.6047 65.1485 67.6496 65.1473Z" />
<path d="M73.9998 64.0039C74.0032 64.28 73.954 64.5544 73.8549 64.8132C73.7674 65.048 73.6296 65.2622 73.4505 65.4417C73.2714 65.6211 73.0552 65.7617 72.816 65.8543C72.2904 66.0486 71.7095 66.0486 71.1839 65.8543C70.9462 65.7603 70.7314 65.6194 70.5531 65.4404C70.3741 65.2578 70.2352 65.0418 70.145 64.8054C69.9517 64.2813 69.9517 63.7083 70.145 63.1841C70.2366 62.9478 70.3752 62.7311 70.5531 62.5466C70.7329 62.3732 70.9476 62.2377 71.1839 62.1484C71.7088 61.9505 72.2911 61.9505 72.816 62.1484C73.0544 62.2423 73.2702 62.3832 73.4496 62.5621C73.6263 62.7431 73.7641 62.9563 73.8549 63.1893C73.9543 63.4499 74.0035 63.7261 73.9998 64.0039ZM73.4361 64.0039C73.4403 63.783 73.4058 63.563 73.3341 63.3533C73.2739 63.1736 73.1762 63.008 73.0469 62.8667C72.921 62.7329 72.766 62.628 72.5932 62.5596C72.2113 62.4173 71.7885 62.4173 71.4067 62.5596C71.2338 62.628 71.0789 62.7329 70.9531 62.8667C70.822 63.0071 70.7232 63.173 70.6631 63.3533C70.5265 63.777 70.5265 64.2309 70.6631 64.6545C70.7237 64.8345 70.8224 65.0003 70.9531 65.1412C71.0791 65.2741 71.234 65.3781 71.4067 65.4457C71.7892 65.5843 72.2106 65.5843 72.5932 65.4457C72.7659 65.3781 72.9208 65.2741 73.0469 65.1412C73.1756 64.9995 73.2733 64.8339 73.3341 64.6545C73.4062 64.4448 73.4406 64.2248 73.4361 64.0039Z" />
<path d="M79.446 64.695L79.5127 64.8433C79.5381 64.7903 79.5604 64.7427 79.5858 64.695C79.6102 64.6453 79.6377 64.5967 79.6686 64.5495L81.2939 62.0905C81.3257 62.0482 81.3544 62.0217 81.3862 62.0138C81.4294 62.0029 81.4746 61.9984 81.5197 62.0005H82V66H81.4307V63.0593C81.4307 63.0223 81.4307 62.9799 81.4307 62.9349C81.4275 62.8891 81.4275 62.8431 81.4307 62.7973L79.7958 65.2906C79.7751 65.3279 79.7419 65.3596 79.7 65.3816C79.6583 65.4037 79.6098 65.4153 79.5604 65.415H79.4682C79.4187 65.4156 79.37 65.4041 79.3282 65.382C79.2864 65.3599 79.2532 65.3282 79.2328 65.2906L77.5502 62.7814C77.5502 62.829 77.5502 62.8767 77.5502 62.9243C77.5502 62.972 77.5502 63.0143 77.5502 63.0514V65.992H77V62.0005H77.4803C77.5253 61.9984 77.5706 62.0029 77.6138 62.0138C77.6532 62.03 77.6847 62.0572 77.7029 62.0905L79.3632 64.5522C79.3958 64.5976 79.4235 64.6454 79.446 64.695Z" />
<path d="M84.597 64.4999V66H84V62.0004H85.3312C85.5826 61.9961 85.8331 62.0256 86.0745 62.0878C86.2677 62.1365 86.4469 62.2215 86.5999 62.337C86.7325 62.4454 86.8346 62.5797 86.8983 62.7293C86.9688 62.8925 87.0032 63.0661 86.9998 63.2409C87.0025 63.4163 86.9648 63.5903 86.8894 63.7524C86.8177 63.9059 86.7074 64.0428 86.567 64.1526C86.4139 64.273 86.2338 64.3633 86.0387 64.4177C85.8063 64.4836 85.5632 64.515 85.3194 64.5105L84.597 64.4999ZM84.597 64.0704H85.3194C85.4763 64.0722 85.6324 64.0517 85.7819 64.0095C85.9053 63.9727 86.0191 63.914 86.1163 63.8372C86.2059 63.7638 86.2754 63.6733 86.3193 63.5722C86.3681 63.4653 86.3925 63.3509 86.3909 63.2356C86.3979 63.1243 86.3774 63.0132 86.3311 62.9098C86.2847 62.8063 86.2134 62.7131 86.1222 62.6365C85.8942 62.4784 85.6077 62.4019 85.3194 62.4219H84.597V64.0704Z" />
<path d="M93 65.9999H92.5536C92.5089 66.0014 92.4649 65.9883 92.4294 65.9627C92.3973 65.9378 92.3722 65.906 92.3559 65.8701L91.9717 64.9039H90.0424L89.6441 65.8701C89.6295 65.9055 89.6051 65.9365 89.5735 65.9601C89.5376 65.9872 89.4924 66.0013 89.4464 65.9999H89L90.6949 62H91.2825L93 65.9999ZM90.2034 64.5148H91.7966L91.1243 62.8868C91.0729 62.7643 91.0304 62.6387 90.9972 62.5109L90.9322 62.72C90.9125 62.7835 90.8898 62.8418 90.8701 62.8894L90.2034 64.5148Z" />
<path d="M95.4632 62.0186C95.5022 62.036 95.5358 62.0605 95.5611 62.0901L98.416 65.1052C98.416 65.0575 98.416 65.0099 98.416 64.9649C98.416 64.9199 98.416 64.8749 98.416 64.8325V62.0001H99V65.9999H98.6738C98.6274 66.001 98.5815 65.9928 98.54 65.9761C98.4997 65.957 98.4642 65.9318 98.4356 65.9019L95.584 62.8895C95.5871 62.9354 95.5871 62.9813 95.584 63.0271C95.584 63.0721 95.584 63.1119 95.584 63.1489V65.9999H95V62.0001H95.3459C95.3862 61.9992 95.4262 62.0056 95.4632 62.0186Z" />
<path d="M103.305 64.4149V66H102.692V64.4149L101 62.0107H101.548C101.595 62.0083 101.642 62.0204 101.679 62.0451C101.713 62.0707 101.741 62.1011 101.762 62.1349L102.821 63.6857C102.864 63.7517 102.901 63.8125 102.931 63.8706C102.962 63.9287 102.986 63.9842 103.008 64.0397L103.087 63.868C103.117 63.8052 103.152 63.7442 103.191 63.6857L104.235 62.1243C104.257 62.0931 104.284 62.0647 104.314 62.0398C104.351 62.0124 104.398 61.9983 104.446 62.0002H105L103.305 64.4149Z" />
<path d="M79 55.9276C79.2584 55.956 79.5198 55.9794 79.7842 56C83.7927 54.4393 87.1836 51.8847 89.5333 48.6557C91.8829 45.4267 93.0871 41.6665 92.9951 37.8452L88.5777 34C89.4759 38.0686 89.0557 42.2745 87.3642 46.147C85.6727 50.0196 82.7767 53.406 79 55.9276Z" />
<path d="M77 55.9794L77.1246 56C81.3568 53.5052 84.5835 50.0214 86.3874 45.9992C88.1913 41.9769 88.4894 37.6012 87.2433 33.4378L80.645 28C83.3138 32.4698 84.388 37.472 83.7428 42.4251C83.0976 47.3782 80.7593 52.0785 77 55.9794Z" />
<path d="M98.5376 42C97.5061 46.2001 95.001 49.988 91.3941 52.8015C90.3406 53.6277 89.2044 54.3637 88 55C90.9371 54.2211 93.6366 52.8439 95.8905 50.9747C98.1445 49.1057 99.8926 46.7944 101 44.2193L98.5376 42Z" />
<path d="M98 42.0742L94.352 39C94.2823 42.5049 93.0999 45.9303 90.9276 48.9198C88.7555 51.9094 85.6728 54.3542 82 56H82.0179C82.8364 55.9997 83.6541 55.9585 84.4668 55.8768C87.8992 54.6962 90.9314 52.8179 93.2929 50.4095C95.6542 48.001 97.2715 45.1375 98 42.0742Z" />
<path d="M78.0638 25.6603L73.5968 22C69.6035 23.2627 66.1691 25.4825 63.7431 28.3688C61.3171 31.2552 60.0124 34.6737 60 38.1768C60.015 42.0477 61.6072 45.8038 64.5246 48.8508C67.442 51.898 71.518 54.0618 76.1074 55C80.2044 50.9155 82.6031 45.8684 82.9549 40.5921C83.3067 35.3159 81.5934 30.0852 78.0638 25.6603Z" />
<path d="M108 41.6742C107.984 36.9909 105.807 32.5033 101.944 29.1916C98.0806 25.8799 92.8455 24.0136 87.3822 24C84.8577 23.9977 82.3546 24.3971 80 25.1777L106.623 48C107.535 45.9826 108.002 43.8377 108 41.6742Z" />
</symbol>

<symbol id="client-4" viewBox="0 0 168 88">
<path d="M60.9109 35.4338H60.9078C58.3703 35.4338 56.3132 37.3051 56.3132 39.6133V39.6161C56.3132 41.9243 58.3703 43.7955 60.9078 43.7955H60.9109C63.4484 43.7955 65.5055 41.9243 65.5055 39.6161V39.6133C65.5055 37.3051 63.4484 35.4338 60.9109 35.4338Z" />
<path d="M94.824 34.0979C94.8168 30.8918 93.4137 27.8189 90.9219 25.5516C88.43 23.2843 85.0522 22.0073 81.5277 22C78.0023 22.0058 74.623 23.2822 72.1298 25.5496C69.6367 27.8171 68.2327 30.8908 68.2255 34.0979V51.7775C68.2255 51.7775 94.8209 49.083 94.824 34.1005V34.0979Z" />
<path d="M47 57.5802C47.0064 59.811 47.9832 61.9489 49.717 63.5266C51.4507 65.1042 53.8005 65.9935 56.2528 66C58.7046 65.9935 61.0539 65.1047 62.7876 63.5275C64.5213 61.9504 65.4985 59.8133 65.5057 57.583V45.2812C65.5057 45.2812 47 47.1575 47 57.5802ZM56.2528 59.7844C55.7736 59.7844 55.3051 59.6551 54.9067 59.4129C54.5082 59.1708 54.1977 58.8265 54.0143 58.4237C53.8309 58.021 53.7829 57.5778 53.8764 57.1502C53.9699 56.7227 54.2007 56.33 54.5395 56.0217C54.8784 55.7134 55.3101 55.5035 55.7801 55.4184C56.2501 55.3334 56.7373 55.3771 57.1801 55.5439C57.6228 55.7108 58.0012 55.9932 58.2674 56.3557C58.5337 56.7181 58.6758 57.1443 58.6758 57.5802C58.6771 57.8704 58.6153 58.1579 58.494 58.4263C58.3727 58.6946 58.1945 58.9386 57.9694 59.1442C57.7442 59.3497 57.4767 59.5128 57.1822 59.6241C56.8876 59.7354 56.5718 59.7927 56.2528 59.7927V59.7844Z" />
<path d="M73.1757 55.821V60.3987H72.2409V55.821H73.1757ZM74.9831 57.7766V58.5123H72.9202V57.7766H74.9831ZM75.2013 55.821V56.5599H72.9202V55.821H75.2013ZM79.4705 58.0029V58.2199C79.4705 58.5679 79.4237 58.8802 79.3302 59.1568C79.2367 59.4335 79.1048 59.6694 78.9344 59.8643C78.7641 60.0571 78.5605 60.2049 78.3237 60.3076C78.0889 60.4103 77.8282 60.4616 77.5415 60.4616C77.2569 60.4616 76.9962 60.4103 76.7593 60.3076C76.5246 60.2049 76.321 60.0571 76.1486 59.8643C75.9761 59.6694 75.8421 59.4335 75.7466 59.1568C75.6531 58.8802 75.6063 58.5679 75.6063 58.2199V58.0029C75.6063 57.6529 75.6531 57.3406 75.7466 57.0661C75.8401 56.7894 75.972 56.5535 76.1423 56.3586C76.3148 56.1637 76.5184 56.0149 76.7531 55.9122C76.9899 55.8095 77.2506 55.7581 77.5353 55.7581C77.822 55.7581 78.0827 55.8095 78.3175 55.9122C78.5543 56.0149 78.7578 56.1637 78.9282 56.3586C79.1007 56.5535 79.2336 56.7894 79.3271 57.0661C79.4226 57.3406 79.4705 57.6529 79.4705 58.0029ZM78.5263 58.2199V57.9967C78.5263 57.7535 78.5045 57.5398 78.4608 57.3553C78.4172 57.1708 78.3528 57.0157 78.2676 56.89C78.1824 56.7642 78.0786 56.6699 77.9559 56.607C77.8334 56.542 77.6932 56.5095 77.5353 56.5095C77.3774 56.5095 77.2371 56.542 77.1146 56.607C76.9941 56.6699 76.8913 56.7642 76.8061 56.89C76.7229 57.0157 76.6597 57.1708 76.616 57.3553C76.5723 57.5398 76.5505 57.7535 76.5505 57.9967V58.2199C76.5505 58.461 76.5723 58.6748 76.616 58.8613C76.6597 59.0457 76.724 59.2019 76.8092 59.3297C76.8944 59.4555 76.9982 59.5509 77.1209 59.6158C77.2434 59.6808 77.3836 59.7134 77.5415 59.7134C77.6994 59.7134 77.8397 59.6808 77.9622 59.6158C78.0848 59.5509 78.1876 59.4555 78.2707 59.3297C78.3539 59.2019 78.4172 59.0457 78.4608 58.8613C78.5045 58.6748 78.5263 58.461 78.5263 58.2199ZM82.5057 59.2008C82.5057 59.1191 82.4932 59.0457 82.4682 58.9808C82.4454 58.9137 82.4018 58.8529 82.3374 58.7984C82.2729 58.7418 82.1826 58.6862 82.0663 58.6318C81.9499 58.5773 81.7993 58.5206 81.6144 58.462C81.4087 58.395 81.2134 58.3194 81.0286 58.2356C80.8457 58.1518 80.6837 58.0544 80.5425 57.9433C80.4032 57.8301 80.2931 57.699 80.2121 57.5502C80.1332 57.4014 80.0937 57.2284 80.0937 57.0314C80.0937 56.8407 80.1353 56.6678 80.2184 56.5126C80.3014 56.3555 80.4178 56.2214 80.5674 56.1102C80.7169 55.9971 80.8935 55.9101 81.0972 55.8493C81.3028 55.7885 81.5282 55.7581 81.7733 55.7581C82.1078 55.7581 82.3997 55.8189 82.649 55.9404C82.8983 56.062 83.0916 56.2287 83.2287 56.4404C83.3678 56.652 83.4374 56.8941 83.4374 57.1666H82.5088C82.5088 57.0325 82.4807 56.9151 82.4246 56.8145C82.3706 56.7118 82.2875 56.6311 82.1753 56.5724C82.0652 56.5137 81.926 56.4844 81.7577 56.4844C81.5957 56.4844 81.4606 56.5095 81.3527 56.5599C81.2446 56.608 81.1637 56.674 81.1096 56.758C81.0556 56.8396 81.0286 56.9319 81.0286 57.0346C81.0286 57.1121 81.0473 57.1824 81.0846 57.2453C81.1241 57.3082 81.1823 57.3668 81.2592 57.4213C81.3361 57.4758 81.4305 57.5272 81.5427 57.5754C81.655 57.6236 81.7847 57.6707 81.9323 57.7168C82.1795 57.7923 82.3965 57.8772 82.5835 57.9715C82.7726 58.0658 82.9305 58.1716 83.0572 58.2891C83.184 58.4065 83.2795 58.5395 83.344 58.6884C83.4083 58.8372 83.4405 59.0059 83.4405 59.1946C83.4405 59.3937 83.402 59.5718 83.3252 59.729C83.2483 59.8863 83.1372 60.0193 82.9918 60.1284C82.8464 60.2373 82.6729 60.3201 82.4713 60.3767C82.2699 60.4334 82.0445 60.4616 81.7951 60.4616C81.5708 60.4616 81.3496 60.4323 81.1314 60.3736C80.9133 60.3128 80.7149 60.2216 80.5362 60.1C80.3596 59.9784 80.2184 59.8234 80.1124 59.6347C80.0065 59.446 79.9535 59.2228 79.9535 58.965H80.8915C80.8915 59.1076 80.9133 59.2281 80.9569 59.3266C81.0005 59.4251 81.0617 59.5047 81.1408 59.5656C81.2217 59.6263 81.3173 59.6703 81.4274 59.6976C81.5397 59.7248 81.6622 59.7385 81.7951 59.7385C81.9571 59.7385 82.0901 59.7154 82.194 59.6694C82.3 59.6232 82.3779 59.5593 82.4277 59.4775C82.4797 59.3958 82.5057 59.3035 82.5057 59.2008ZM86.1049 55.821V60.3987H85.1731V55.821H86.1049ZM87.501 55.821V56.5599H83.7989V55.821H87.501ZM91.0783 59.663V60.3987H88.6633V59.663H91.0783ZM88.9686 55.821V60.3987H88.0338V55.821H88.9686ZM90.7636 57.6854V58.4023H88.6633V57.6854H90.7636ZM91.0752 55.821V56.5599H88.6633V55.821H91.0752ZM91.6237 55.821H93.3159C93.6627 55.821 93.9609 55.8733 94.2102 55.9782C94.4615 56.083 94.6547 56.2381 94.7898 56.4435C94.9249 56.6489 94.9923 56.9016 94.9923 57.2012C94.9923 57.4465 94.9508 57.6572 94.8676 57.8332C94.7867 58.0071 94.6714 58.1529 94.5217 58.2702C94.3743 58.3855 94.2008 58.4777 94.0014 58.5469L93.7054 58.704H92.2345L92.2282 57.9684H93.322C93.4861 57.9684 93.6222 57.939 93.7303 57.8804C93.8383 57.8217 93.9193 57.7399 93.9733 57.6351C94.0295 57.5303 94.0574 57.4087 94.0574 57.2704C94.0574 57.1237 94.0304 56.9968 93.9765 56.89C93.9225 56.7831 93.8403 56.7013 93.7303 56.6447C93.6202 56.5882 93.482 56.5599 93.3159 56.5599H92.5585V60.3987H91.6237V55.821ZM94.1603 60.3987L93.1257 58.3583L94.1136 58.3519L95.1606 60.3547V60.3987H94.1603ZM99.0684 58.7669H97.9122V58.0313H99.0684C99.247 58.0313 99.3924 58.0019 99.5046 57.9433C99.6168 57.8824 99.6988 57.7986 99.7508 57.6917C99.8027 57.5848 99.8287 57.4643 99.8287 57.3302C99.8287 57.1939 99.8027 57.067 99.7508 56.9497C99.6988 56.8323 99.6168 56.738 99.5046 56.6667C99.3924 56.5955 99.247 56.5599 99.0684 56.5599H98.2363V60.3987H97.3014V55.821H99.0684C99.4235 55.821 99.728 55.886 99.9814 56.016C100.237 56.1438 100.432 56.3209 100.567 56.5473C100.702 56.7736 100.77 57.0325 100.77 57.3238C100.77 57.6194 100.702 57.8751 100.567 58.0909C100.432 58.3069 100.237 58.4735 99.9814 58.5909C99.728 58.7082 99.4235 58.7669 99.0684 58.7669ZM104.459 59.663V60.3987H102.044V59.663H104.459ZM102.35 55.821V60.3987H101.415V55.821H102.35ZM104.145 57.6854V58.4023H102.044V57.6854H104.145ZM104.456 55.821V56.5599H102.044V55.821H104.456ZM107.096 55.821V60.3987H106.164V55.821H107.096ZM108.492 55.821V56.5599H104.79V55.821H108.492ZM112.069 59.663V60.3987H109.654V59.663H112.069ZM109.959 55.821V60.3987H109.025V55.821H109.959ZM111.754 57.6854V58.4023H109.654V57.6854H111.754ZM112.066 55.821V56.5599H109.654V55.821H112.066ZM112.615 55.821H114.307C114.654 55.821 114.952 55.8733 115.201 55.9782C115.452 56.083 115.646 56.2381 115.781 56.4435C115.916 56.6489 115.983 56.9016 115.983 57.2012C115.983 57.4465 115.942 57.6572 115.858 57.8332C115.777 58.0071 115.662 58.1529 115.513 58.2702C115.365 58.3855 115.192 58.4777 114.992 58.5469L114.696 58.704H113.225L113.219 57.9684H114.313C114.477 57.9684 114.613 57.939 114.721 57.8804C114.829 57.8217 114.91 57.7399 114.964 57.6351C115.02 57.5303 115.048 57.4087 115.048 57.2704C115.048 57.1237 115.021 56.9968 114.967 56.89C114.913 56.7831 114.831 56.7013 114.721 56.6447C114.611 56.5882 114.473 56.5599 114.307 56.5599H113.549V60.3987H112.615V55.821ZM115.151 60.3987L114.117 58.3583L115.104 58.3519L116.151 60.3547V60.3987H115.151ZM119.065 59.2008C119.065 59.1191 119.053 59.0457 119.028 58.9808C119.005 58.9137 118.961 58.8529 118.897 58.7984C118.832 58.7418 118.742 58.6862 118.626 58.6318C118.509 58.5773 118.359 58.5206 118.174 58.462C117.968 58.395 117.773 58.3194 117.588 58.2356C117.405 58.1518 117.243 58.0544 117.102 57.9433C116.963 57.8301 116.853 57.699 116.772 57.5502C116.693 57.4014 116.653 57.2284 116.653 57.0314C116.653 56.8407 116.695 56.6678 116.778 56.5126C116.861 56.3555 116.977 56.2214 117.127 56.1102C117.276 55.9971 117.453 55.9101 117.657 55.8493C117.862 55.7885 118.088 55.7581 118.333 55.7581C118.667 55.7581 118.959 55.8189 119.208 55.9404C119.458 56.062 119.651 56.2287 119.788 56.4404C119.927 56.652 119.997 56.8941 119.997 57.1666H119.068C119.068 57.0325 119.04 56.9151 118.984 56.8145C118.93 56.7118 118.847 56.6311 118.735 56.5724C118.625 56.5137 118.485 56.4844 118.317 56.4844C118.155 56.4844 118.02 56.5095 117.912 56.5599C117.804 56.608 117.723 56.674 117.669 56.758C117.615 56.8396 117.588 56.9319 117.588 57.0346C117.588 57.1121 117.607 57.1824 117.644 57.2453C117.684 57.3082 117.742 57.3668 117.819 57.4213C117.896 57.4758 117.99 57.5272 118.102 57.5754C118.214 57.6236 118.344 57.6707 118.492 57.7168C118.739 57.7923 118.956 57.8772 119.143 57.9715C119.332 58.0658 119.49 58.1716 119.617 58.2891C119.743 58.4065 119.839 58.5395 119.903 58.6884C119.968 58.8372 120 59.0059 120 59.1946C120 59.3937 119.961 59.5718 119.885 59.729C119.808 59.8863 119.697 60.0193 119.551 60.1284C119.406 60.2373 119.232 60.3201 119.031 60.3767C118.829 60.4334 118.604 60.4616 118.355 60.4616C118.13 60.4616 117.909 60.4323 117.691 60.3736C117.473 60.3128 117.274 60.2216 117.096 60.1C116.919 59.9784 116.778 59.8234 116.672 59.6347C116.566 59.446 116.513 59.2228 116.513 58.965H117.451C117.451 59.1076 117.473 59.2281 117.516 59.3266C117.56 59.4251 117.621 59.5047 117.7 59.5656C117.781 59.6263 117.877 59.6703 117.987 59.6976C118.099 59.7248 118.222 59.7385 118.355 59.7385C118.517 59.7385 118.65 59.7154 118.753 59.6694C118.859 59.6232 118.937 59.5593 118.987 59.4775C119.039 59.3958 119.065 59.3035 119.065 59.2008Z" />
</symbol>


<symbol id="client-5" viewBox="0 0 168 88">
<path d="M57.6404 58.4198C57.878 58.687 58.0047 59.0216 57.998 59.3651C58.0102 59.5891 57.9666 59.8127 57.8707 60.0193C57.7748 60.226 57.6288 60.4105 57.4438 60.559C56.982 60.8757 56.4099 61.0306 55.8325 60.995H53V55.0047H55.7745C56.3222 54.9717 56.8656 55.1124 57.3116 55.4028C57.4909 55.539 57.6327 55.7111 57.7261 55.9056C57.8195 56.1 57.8618 56.3116 57.8498 56.5235C57.8661 56.854 57.7518 57.1788 57.5276 57.4395C57.3123 57.6775 57.0148 57.8425 56.6832 57.9077C57.0591 57.97 57.3983 58.1515 57.6404 58.4198ZM54.318 57.5156H55.5038C55.7733 57.5337 56.041 57.463 56.2579 57.3166C56.3469 57.2433 56.4162 57.1524 56.4604 57.0509C56.5045 56.9494 56.5224 56.8401 56.5125 56.7314C56.5208 56.6229 56.5026 56.5142 56.4591 56.413C56.4158 56.3118 56.3481 56.2207 56.2611 56.146C56.0378 55.9954 55.7618 55.9237 55.4845 55.9441H54.318V57.5156ZM56.3739 59.8127C56.4691 59.7377 56.5439 59.6439 56.5925 59.5383C56.6412 59.4327 56.6623 59.3183 56.6543 59.2041C56.6615 59.0885 56.6395 58.9731 56.5897 58.8665C56.54 58.7599 56.464 58.6652 56.3674 58.5896C56.1354 58.4334 55.8501 58.3567 55.5618 58.373H54.318V60.0205H55.5779C55.8616 60.0354 56.1423 59.9621 56.3739 59.8127Z" />
<path d="M63.5254 61L61.9486 58.6573H61.3561V61H60V55.0055H62.5675C63.2147 54.9653 63.8545 55.1477 64.3548 55.515C64.7137 55.8404 64.9302 56.2691 64.9652 56.7238C65.0002 57.1787 64.8514 57.6296 64.5458 57.9955C64.229 58.3183 63.7963 58.5335 63.3213 58.6046L65 61H63.5254ZM61.3561 57.8403H62.4654C63.2356 57.8403 63.6208 57.5376 63.6208 56.9324C63.6286 56.8088 63.6076 56.6851 63.5588 56.5692C63.51 56.4533 63.4348 56.3476 63.3377 56.2588C63.0943 56.0788 62.7808 55.9914 62.4654 56.0158H61.343L61.3561 57.8403Z" />
<path d="M70.9625 59.7787H68.0481L67.5334 61H66L68.6764 55H70.3342L73 61H71.4665L70.9625 59.7787ZM70.5719 58.8598L69.507 56.2985L68.4421 58.8598H70.5719Z" />
<path d="M80 61H78.5848L75.4118 56.9198V61H74V55H75.4118L78.5848 59.1035V55H80V61Z" />
<path d="M87.5734 59.5632C87.2917 60.016 86.8624 60.3843 86.3408 60.6208C85.7476 60.8843 85.0895 61.0141 84.4253 60.9988H82V55.0012H84.4253C85.0883 54.986 85.7457 55.1127 86.3408 55.3704C86.8623 55.6015 87.292 55.9662 87.5734 56.4164C87.8538 56.9041 88 57.4431 88 57.9897C88 58.5363 87.8538 59.0753 87.5734 59.5632ZM86.0143 59.4196C86.4031 59.0211 86.617 58.5134 86.617 57.9883C86.617 57.4632 86.4031 56.9555 86.0143 56.5571C85.5443 56.1962 84.9313 56.0129 84.3086 56.0472H83.3625V59.9293H84.3086C84.9313 59.9637 85.5443 59.7805 86.0143 59.4196Z" />
<path d="M72 22C72 22 89.3626 27.7206 88.9942 35.9986V50C88.9942 50 71.6448 44.2766 72.0066 35.9986L72 22Z" />
<path d="M104 47C107.27 45.0134 111.052 43.783 115 43.4213V39C110.451 40.5478 106.592 43.3545 104 47Z" />
<path d="M102.112 48.4442C104.773 43.5944 109.385 39.852 115 37.9868V25C115 25 90.4897 33.3795 91.0081 45.5014V66C91.0081 66 92.1003 65.6251 93.8184 64.9227C93.8184 64.2675 93.8184 63.6063 93.8967 62.9421C94.4039 57.3145 97.3591 52.0997 102.112 48.4442Z" />
<path d="M100.009 56.0677C100.158 54.6899 100.49 53.3271 101 52C97.5785 55.0595 95.5065 58.856 95.0754 62.8557C95.034 63.2333 95.0113 63.6109 95 64C96.6093 63.4135 98.4824 62.6813 100.45 61.8203C99.9477 59.9279 99.7993 57.9914 100.009 56.0677Z" />
<path d="M101.074 56.4946C100.914 58.3341 101.014 60.1855 101.37 62C107.918 58.2844 115.276 52.5431 114.992 45.6047V45C110.314 45.4964 105.937 47.436 102.534 50.5205C101.737 52.4321 101.245 54.4455 101.074 56.4946Z" />
</symbol>

<symbol id="client-6" viewBox="0 0 168 88">
<path d="M84.4697 42.2346C84.1296 41.5932 83.967 40.8353 84.0056 40.0723V36.9373C84.0056 35.9763 84.1594 35.2459 84.4671 34.7463C84.7748 34.2466 85.3032 33.9979 86.0524 34C86.7564 34 87.2562 34.2127 87.5517 34.6379C87.874 35.1804 88.0309 35.844 87.995 36.5132V37.2499H86.7356V36.5036C86.7401 36.2593 86.7279 36.015 86.6991 35.7733C86.681 35.608 86.6175 35.455 86.5192 35.3395C86.3898 35.215 86.227 35.1547 86.0628 35.1705C85.8904 35.1548 85.7192 35.2184 85.5831 35.3491C85.4734 35.4771 85.4003 35.6448 85.3745 35.8275C85.3384 36.0833 85.3218 36.3427 85.325 36.6024V40.4072C85.3051 40.7742 85.3606 41.1415 85.4866 41.4755C85.5493 41.5886 85.6363 41.6782 85.738 41.7345C85.8397 41.7908 85.9521 41.8116 86.0628 41.7944C86.2242 41.8107 86.3843 41.7489 86.5088 41.6223C86.6113 41.4977 86.6773 41.3352 86.6965 41.1599C86.7259 40.9074 86.739 40.6525 86.7356 40.3976V39.6258H87.995V40.3306C88.0303 41.0282 87.8773 41.7207 87.5596 42.3016C87.2701 42.7672 86.7773 43 86.0524 43C85.3276 43 84.78 42.7513 84.4697 42.2346Z" />
<path d="M90.5762 42.2665C90.1921 41.7786 90 41.0674 90 40.1266V36.8288C90 35.8976 90.1921 35.1928 90.5762 34.7144C90.9603 34.236 91.6027 33.998 92.5031 34C93.3973 34 94.0366 34.2382 94.4206 34.7144C94.8048 35.1928 95 35.8976 95 36.8288V40.1266C95 41.0578 94.8048 41.7722 94.4143 42.2633C94.024 42.7545 93.3879 43 92.5031 43C91.6184 43 90.9635 42.7513 90.5762 42.2665ZM93.2116 41.4755C93.3491 41.17 93.4119 40.8351 93.3942 40.4997V36.4621C93.4119 36.1331 93.3503 35.8048 93.2148 35.5054C93.1376 35.3899 93.03 35.2988 92.9041 35.2425C92.7783 35.186 92.6394 35.1666 92.5031 35.1865C92.3666 35.1671 92.2273 35.1868 92.101 35.2431C91.9748 35.2995 91.8666 35.3902 91.7885 35.5054C91.6499 35.8039 91.5872 36.1328 91.6058 36.4621V40.5188C91.5867 40.8544 91.6494 41.1895 91.7885 41.4947C91.8771 41.5975 91.9865 41.68 92.1092 41.7366C92.2319 41.793 92.3652 41.8222 92.5 41.8222C92.6348 41.8222 92.7681 41.793 92.8908 41.7366C93.0135 41.68 93.1229 41.5975 93.2116 41.4947V41.4755Z" />
<path d="M96.1472 34H97.7765L99.0016 40.2353L100.255 34H101.84L102 43H100.828L100.703 36.7451L99.4935 43H98.5535L97.3003 36.7222L97.1844 43H96L96.1472 34Z" />
<path d="M104.008 34H106.149C107.383 34 108 34.8519 108 36.5556C108 38.1874 107.351 39.0022 106.052 39H105.322V43H104L104.008 34ZM105.837 37.8464C105.968 37.8669 106.101 37.8521 106.226 37.803C106.352 37.754 106.467 37.6718 106.564 37.5621C106.716 37.2582 106.783 36.9012 106.755 36.5458C106.762 36.2712 106.74 35.9967 106.691 35.7288C106.672 35.6393 106.639 35.5554 106.594 35.4818C106.549 35.4083 106.492 35.3468 106.427 35.3006C106.243 35.1918 106.041 35.1425 105.837 35.1569H105.325V37.8464H105.837Z" />
<path d="M110.681 34H112.319L114 43H112.578L112.246 40.9248H110.785L110.443 43H109L110.681 34ZM112.081 39.8823L111.511 36.1046L110.94 39.8823H112.081Z" />
<path d="M115.003 34H116.222L118.555 39.134V34H120V43H118.841L116.494 37.6405V43H115L115.003 34Z" />
<path d="M122.755 39.5636L121 34H122.478L123.549 37.5738L124.554 34H126L124.267 39.5636V43H122.755V39.5636Z" />
<path d="M86 47V47.4561H85.1749V51H84.8291V47.4561H84V47H86Z" />
<path d="M90 50.984H89.6644C89.6303 50.9866 89.5967 50.9731 89.5703 50.946C89.545 50.9228 89.5255 50.8909 89.5144 50.8542L89.2144 49.9041H87.7754L87.4754 50.8542C87.4668 50.8939 87.4512 50.9307 87.4297 50.9619C87.4031 50.9884 87.3696 51.0018 87.3356 50.9998H87L88.2711 47H88.7136L90 50.984ZM87.8949 49.4987H89.0949L88.5864 47.8709C88.5489 47.7478 88.5175 47.622 88.4923 47.494C88.4745 47.57 88.4593 47.6429 88.4441 47.7063L88.3983 47.8741L87.8949 49.4987Z" />
<path d="M93.3265 50.5698C93.4394 50.5749 93.5525 50.5749 93.6656 50.5698C93.763 50.5611 93.8595 50.5454 93.954 50.523C94.0424 50.5042 94.1292 50.4803 94.2138 50.4513C94.2931 50.4232 94.3725 50.389 94.4554 50.3546V49.4692H93.734C93.7162 49.4701 93.6984 49.4678 93.6816 49.4625C93.6648 49.457 93.6496 49.4488 93.6367 49.4381C93.6248 49.4292 93.6155 49.4182 93.6092 49.4058C93.603 49.3934 93.6 49.3799 93.6006 49.3663V49.0639H95V50.5728C94.8858 50.6435 94.7651 50.706 94.6393 50.7599C94.5107 50.8148 94.3768 50.8597 94.239 50.8939C94.0915 50.9315 93.9407 50.9585 93.7881 50.975C93.6133 50.9918 93.4375 51.0001 93.2615 50.9999C92.9505 51.0023 92.6419 50.9525 92.3526 50.8534C92.0827 50.7596 91.8374 50.6196 91.6313 50.4419C91.4306 50.2624 91.2724 50.0506 91.1661 49.8184C91.0524 49.5574 90.9962 49.2804 91.0002 49.0016C90.9964 48.721 91.0514 48.4423 91.1625 48.1786C91.2662 47.9453 91.4247 47.7329 91.6277 47.5551C91.8336 47.3779 92.079 47.239 92.349 47.1467C92.6579 47.0462 92.9857 46.9966 93.3157 47.0002C93.4836 47 93.6513 47.0114 93.8171 47.0345C93.9636 47.055 94.1074 47.0885 94.2462 47.1342C94.3723 47.1752 94.4932 47.2274 94.6069 47.2901C94.7174 47.3516 94.8224 47.4204 94.9207 47.4958L94.7476 47.739C94.734 47.7612 94.7138 47.7798 94.689 47.793C94.6643 47.8062 94.6359 47.8134 94.6069 47.8138C94.5669 47.8127 94.5282 47.8019 94.495 47.7826C94.441 47.7577 94.3833 47.7266 94.3183 47.6891C94.2416 47.6475 94.1608 47.6121 94.0767 47.5831C93.9692 47.5459 93.8582 47.5166 93.7449 47.4958C93.5939 47.4718 93.4405 47.4603 93.2869 47.4615C93.0488 47.4593 92.8126 47.4963 92.5908 47.5706C92.39 47.6402 92.2091 47.7466 92.0606 47.8824C91.9111 48.024 91.7969 48.1906 91.7251 48.3719C91.564 48.7982 91.564 49.2579 91.7251 49.6843C91.804 49.8695 91.9269 50.0384 92.0858 50.18C92.2337 50.3151 92.4132 50.4214 92.6124 50.4918C92.8417 50.5598 93.0847 50.5864 93.3265 50.5698Z" />
<path d="M98.4684 50.5439H100V51H98V47H98.4797L98.4684 50.5439Z" />
<path d="M102 51H101V47H102V51Z" />
<path d="M103.343 47.0347C103.373 47.0529 103.399 47.0776 103.419 47.1072L105.563 50.1098C105.56 50.0626 105.56 50.0151 105.563 49.9679C105.563 49.9238 105.563 49.8795 105.563 49.8385V47H106V50.9993H105.748C105.711 51.0025 105.673 50.9949 105.639 50.9772C105.609 50.9573 105.582 50.9317 105.56 50.9015L103.419 47.9021C103.419 47.9493 103.419 47.9935 103.419 48.0376C103.419 48.0818 103.419 48.1228 103.419 48.1607V50.9993H103V47.0158H103.261C103.289 47.0158 103.317 47.0222 103.343 47.0347Z" />
<path d="M110 47V47.4413H107.675V48.7651H109.559V49.1905H107.675V50.5588H110V51H107V47H110Z" />
<path d="M56.4782 23.932L79.5248 30.4V53.065L56.4782 46.6V23.932ZM55 22V47.701L81 55V29.302L55 22Z" />
<path d="M68 66L42 58.6956V33L68 40.3013V66Z" />
<path d="M54.8051 23.536L78.1081 29.5145L68.198 38.4668L44.8919 32.4855L54.8051 23.536ZM54.3635 22L42 33.1651L68.6396 40L81 28.835L54.3635 22Z" />
<path d="M70 65L81 54.877L70 52V65Z" />
</symbol>

<symbol id="close" viewBox="0 0 32 32">
<path d="M32 3.224l-3.224-3.224-12.776 12.776-12.776-12.776-3.224 3.224 12.776 12.776-12.776 12.776 3.224 3.224 12.776-12.776 12.776 12.776 3.224-3.224-12.776-12.776 12.776-12.776z"></path>
</symbol>

<symbol id="submit" viewBox="0 0 24 24">
<path d="M24 2L0 13.25L7.66994 15.6172L19.5 6.375L10.5017 16.4913L10.509 16.4936L10.5 16.4913V22L14.8013 17.8183L20.2501 19.5L24 2Z" fill="white"></path>
</symbol>

<symbol id="person" viewBox="0 0 18 18">
<path  d="M9 9a3 3 0 1 0 0-6 3 3 0 0 0 0 6Zm0 1.5c-2 0-6 1-6 3v.75c0 .41.34.75.75.75h10.5c.41 0 .75-.34.75-.75v-.75c0-2-4-3-6-3Z"></path>
</symbol>

<symbol id="phone" viewBox="0 0 18 24">
<path d="m14.73 13.87-1.84-.21c-.44-.06-.88.1-1.19.4l-1.33 1.34a10.89 10.89 0 0 1-4.77-4.77l1.34-1.34c.31-.31.46-.74.41-1.19l-.2-1.82A1.45 1.45 0 0 0 5.7 5H4.45c-.82 0-1.5.68-1.45 1.5A12.3 12.3 0 0 0 14.5 18c.82.05 1.5-.63 1.5-1.45V15.3c0-.73-.54-1.35-1.27-1.43Z"></path>
</symbol>

<symbol id="email" viewBox="0 0 18 24">
<path d="M15 6H3c-.83 0-1.5.67-1.5 1.5v9c0 .82.67 1.5 1.5 1.5h12c.82 0 1.5-.68 1.5-1.5v-9c0-.83-.68-1.5-1.5-1.5Zm-.3 3.19L9.4 12.5a.76.76 0 0 1-.8 0L3.3 9.2a.64.64 0 1 1 .68-1.08L9 11.25l5.03-3.14a.64.64 0 1 1 .67 1.08Z"></path>
</symbol>

<symbol id="check-mark" viewBox="0 0 42 32">
<path fill="#fff" style="fill: var(--color1); stroke: var(--color1)" stroke="#fff" stroke-linejoin="miter" stroke-linecap="butt" stroke-miterlimit="4" stroke-width="0.64" d="M6.262 15.206l-0.221-0.211-0.221 0.208-3.085 2.925 0.243 0.234 11.408 10.88 0.221-0.211 24.256-23.139-0.243-0.23-3.043-2.902-0.221 0.211-20.97 19.987-8.125-7.75z"></path>

<symbol id="hamburger-open" viewBox="0 0 32 32">
<path d="M6.4 11.734V9.6h19.2v2.134H6.4zm0 5.332h19.2v-2.133H6.4v2.133zm0 5.334h19.2v-2.134H6.4V22.4z"/>
</symbol>

<symbol id="hamburger-close" viewBox="0 0 32 32">
<path d="M23.734 10.304 22.23 8.8l-5.963 5.962L10.305 8.8l-1.504 1.504 5.962 5.962-5.962 5.963 1.504 1.504 5.962-5.963 5.963 5.963 1.504-1.504-5.963-5.963 5.963-5.962z"/>
</symbol>
</defs>
</svg>